<?xml version="1.0" encoding="utf-8"?>
<!-- Generator: Adobe Illustrator 26.5.0, SVG Export Plug-In . SVG Version: 6.00 Build 0)  -->
<svg version="1.1" id="Calque_1" xmlns="http://www.w3.org/2000/svg" xmlns:xlink="http://www.w3.org/1999/xlink" x="0px" y="0px"
	 viewBox="0 0 85 85" style="enable-background:new 0 0 85 85;" xml:space="preserve">
<style type="text/css">
	.st0{display:none;}
	.st1{display:inline;fill:#3A5A99;}
	.st2{display:inline;fill:#FFFFFF;}
	.st3{display:inline;fill:#0076B2;}
	.st4{display:inline;}
	.st5{fill:#FFFFFF;}
	.st6{display:inline;fill:#55ACEE;}
	.st7{fill:#337FFF;}
</style>
<g id="Facebook-11" class="st0">
	<circle id="back-104" class="st1" cx="42.5" cy="42.5" r="42.5"/>
	<path id="Facebook-12" class="st2" d="M63.18,19.26H21.82c-1.41,0-2.56,1.15-2.56,2.56v41.36c0,1.41,1.15,2.56,2.56,2.56h22.27v-18
		H38v-7h6.06v-5.19c0-6,3.66-9.27,9-9.27c1.81-0.01,3.61,0.09,5.41,0.28v6.27h-3.71c-2.92,0-3.48,1.39-3.48,3.42v4.48h6.95l-0.91,7
		h-6v18h11.85c1.41,0,2.56-1.15,2.56-2.56V21.82C65.73,20.41,64.59,19.27,63.18,19.26z"/>
</g>
<g id="Linkedin-11" class="st0">
	<circle id="back-100" class="st3" cx="42.5" cy="42.5" r="42.5"/>
	<g id="Linkedin-12" class="st4">
		<path class="st5" d="M19.31,34.36h9.87V66.1h-9.87L19.31,34.36z M24.25,18.59c3.16,0,5.72,2.56,5.72,5.72s-2.56,5.72-5.72,5.72
			s-5.72-2.56-5.72-5.72C18.53,21.15,21.09,18.59,24.25,18.59L24.25,18.59"/>
		<path class="st5" d="M35.37,34.36h9.45v4.34H45c1.93-3.3,5.51-5.26,9.33-5.12c10,0,11.83,6.57,11.83,15.11V66.1H56.3V50.67
			c0-3.68-0.06-8.42-5.12-8.42s-5.92,4-5.92,8.15v15.7h-9.85L35.37,34.36z"/>
	</g>
</g>
<g id="Twitter-11" class="st0">
	<circle id="back-93" class="st6" cx="42.5" cy="42.5" r="42.5"/>
	<path id="Twitter-12" class="st2" d="M66.3,27.74c-1.78,0.79-3.67,1.31-5.61,1.54c2.04-1.22,3.57-3.14,4.29-5.41
		c-1.92,1.14-4.01,1.94-6.2,2.37c-3.69-3.93-9.88-4.12-13.81-0.43c-1.96,1.84-3.08,4.42-3.08,7.11c0,0.75,0.09,1.5,0.25,2.23
		C34.29,34.77,26.98,31.08,22,25c-2.57,4.45-1.26,10.13,3,13c-1.55-0.05-3.07-0.47-4.43-1.22v0.13c0,4.65,3.28,8.65,7.84,9.57
		c-1.44,0.39-2.95,0.44-4.41,0.17c1.28,3.98,4.94,6.71,9.12,6.78c-3.46,2.71-7.73,4.17-12.12,4.16c-0.78,0-1.56-0.05-2.33-0.14
		c4.47,2.88,9.68,4.41,15,4.39c18,0,27.79-14.88,27.79-27.78c0-0.43,0-0.85,0-1.27C63.36,31.41,65,29.7,66.3,27.74z"/>
</g>
<path class="st7" d="M19.83,0.35h47.68C77.74,0.35,86,8.63,86,18.83v47.68C86,76.74,77.72,85,67.52,85H19.83
	C9.61,85,1.35,76.72,1.35,66.52V18.83C1.35,8.61,9.61,0.35,19.83,0.35z"/>
<path class="st5" d="M54.02,45.44l1.21-7.66h-7.42V32.8c0-2.1,1.04-4.15,4.35-4.15h3.42v-6.53c-1.99-0.31-4-0.49-6.03-0.51
	c-6.11,0-10.11,3.67-10.11,10.33v5.85h-6.78v7.66h6.78v18.54h8.36V45.44H54.02z"/>
</svg>
