<?xml version="1.0" encoding="utf-8"?>
<!-- Generator: Adobe Illustrator 26.5.0, SVG Export Plug-In . SVG Version: 6.00 Build 0)  -->
<svg version="1.1" id="Calque_1" xmlns="http://www.w3.org/2000/svg" xmlns:xlink="http://www.w3.org/1999/xlink" x="0px" y="0px"
	 viewBox="0 0 85 85" style="enable-background:new 0 0 85 85;" xml:space="preserve">
<style type="text/css">
	.st0{display:none;fill:#337FFF;}
	.st1{display:none;fill:#FFFFFF;}
	.st2{fill:url(#SVGID_1_);}
	.st3{fill:#FFFFFF;}
</style>
<path class="st0" d="M19.83,0.35h47.68C77.74,0.35,86,8.63,86,18.83v47.68C86,76.74,77.72,85,67.52,85H19.83
	C9.61,85,1.35,76.72,1.35,66.52V18.83C1.35,8.61,9.61,0.35,19.83,0.35z"/>
<path class="st1" d="M54.02,45.44l1.21-7.66h-7.42V32.8c0-2.1,1.04-4.15,4.35-4.15h3.42v-6.53c-1.99-0.31-4-0.49-6.03-0.51
	c-6.11,0-10.11,3.67-10.11,10.33v5.85h-6.78v7.66h6.78v18.54h8.36V45.44H54.02z"/>
<linearGradient id="SVGID_1_" gradientUnits="userSpaceOnUse" x1="59.2452" y1="517.8277" x2="-25.4122" y2="433.1707" gradientTransform="matrix(1 0 0 1 24.9449 -435.6378)">
	<stop  offset="0" style="stop-color:#FBE18A"/>
	<stop  offset="0.21" style="stop-color:#FCBB45"/>
	<stop  offset="0.38" style="stop-color:#F75274"/>
	<stop  offset="0.52" style="stop-color:#D53692"/>
	<stop  offset="0.74" style="stop-color:#8F39CE"/>
	<stop  offset="1" style="stop-color:#5B4FE9"/>
</linearGradient>
<path class="st2" d="M18.83-1.65h47.68C76.74-1.65,85,6.63,85,16.83v47.68C85,74.74,76.72,83,66.52,83H18.83
	C8.61,83,0.35,74.72,0.35,64.52V16.83C0.35,6.61,8.63-1.65,18.83-1.65z"/>
<path class="st3" d="M35.64,40.78c0-3.89,3.16-7.06,7.06-7.06s7.06,3.16,7.06,7.06s-3.16,7.06-7.06,7.06S35.64,44.68,35.64,40.78z
	 M31.81,40.78c0,6.02,4.86,10.88,10.88,10.88c6,0,10.88-4.86,10.88-10.88c0-6.02-4.86-10.88-10.88-10.88
	C36.68,29.91,31.81,34.77,31.81,40.78z M51.45,29.47c0,0.51,0.15,0.99,0.42,1.41c0.27,0.42,0.68,0.75,1.13,0.93
	c0.46,0.2,0.97,0.24,1.46,0.15c0.49-0.09,0.95-0.35,1.3-0.69c0.35-0.35,0.6-0.8,0.69-1.3c0.09-0.49,0.05-1.01-0.15-1.46
	s-0.51-0.86-0.93-1.13c-0.42-0.27-0.91-0.42-1.41-0.42l0,0c-0.68,0-1.32,0.27-1.79,0.75C51.73,28.15,51.45,28.79,51.45,29.47z
	 M34.14,58.03c-2.07-0.09-3.18-0.44-3.93-0.73c-0.99-0.38-1.7-0.84-2.43-1.59c-0.75-0.75-1.21-1.44-1.59-2.43
	c-0.29-0.75-0.64-1.86-0.73-3.93c-0.11-2.23-0.13-2.91-0.13-8.56c0-5.65,0.02-6.33,0.13-8.56c0.09-2.07,0.44-3.18,0.73-3.93
	c0.38-0.99,0.84-1.7,1.59-2.43c0.75-0.75,1.44-1.21,2.43-1.59c0.75-0.29,1.86-0.64,3.93-0.73c2.23-0.11,2.91-0.13,8.56-0.13
	c5.65,0,6.33,0.02,8.56,0.13c2.07,0.09,3.18,0.44,3.93,0.73c0.99,0.38,1.7,0.84,2.43,1.59c0.75,0.75,1.21,1.44,1.59,2.43
	c0.29,0.75,0.64,1.86,0.73,3.93c0.11,2.23,0.13,2.91,0.13,8.56c0,5.65-0.02,6.33-0.13,8.56c-0.09,2.07-0.44,3.18-0.73,3.93
	c-0.38,0.99-0.84,1.7-1.59,2.43c-0.75,0.73-1.44,1.21-2.43,1.59c-0.75,0.29-1.86,0.64-3.93,0.73c-2.23,0.11-2.91,0.13-8.56,0.13
	C37.04,58.15,36.37,58.12,34.14,58.03z M33.95,19.72c-2.25,0.11-3.8,0.46-5.14,0.99c-1.39,0.55-2.58,1.26-3.75,2.45
	c-1.17,1.19-1.9,2.36-2.45,3.75c-0.53,1.35-0.88,2.89-0.99,5.14c-0.11,2.27-0.13,2.98-0.13,8.74s0.02,6.47,0.13,8.74
	c0.11,2.25,0.46,3.8,0.99,5.14c0.55,1.39,1.26,2.58,2.45,3.75c1.17,1.17,2.36,1.9,3.75,2.45c1.35,0.53,2.89,0.88,5.14,0.99
	c2.27,0.11,2.98,0.13,8.74,0.13s6.47-0.02,8.74-0.13c2.25-0.11,3.78-0.46,5.14-0.99c1.39-0.55,2.58-1.26,3.75-2.45
	c1.17-1.17,1.9-2.36,2.45-3.75c0.53-1.35,0.88-2.89,0.99-5.14c0.11-2.27,0.13-2.98,0.13-8.74s-0.02-6.47-0.13-8.74
	c-0.11-2.25-0.46-3.8-0.99-5.14c-0.55-1.39-1.26-2.58-2.45-3.75c-1.17-1.17-2.36-1.9-3.75-2.45c-1.35-0.53-2.89-0.88-5.14-0.99
	c-2.27-0.11-2.98-0.13-8.74-0.13C36.93,19.59,36.22,19.61,33.95,19.72z"/>
</svg>
