<?xml version="1.0" encoding="utf-8"?>
<!-- Generator: Adobe Illustrator 26.5.0, SVG Export Plug-In . SVG Version: 6.00 Build 0)  -->
<svg version="1.1" id="Calque_1" xmlns="http://www.w3.org/2000/svg" xmlns:xlink="http://www.w3.org/1999/xlink" x="0px" y="0px"
	 viewBox="0 0 85 85" style="enable-background:new 0 0 85 85;" xml:space="preserve">
<style type="text/css">
	.st0{display:none;fill:#337FFF;}
	.st1{display:none;fill:#FFFFFF;}
	.st2{display:none;fill:url(#SVGID_1_);}
	.st3{display:none;fill:#33CCFF;}
	.st4{display:none;fill:#00D95F;}
	.st5{display:none;fill-rule:evenodd;clip-rule:evenodd;fill:#FFFFFF;}
	.st6{fill:#006699;}
	.st7{fill:#FFFFFF;}
</style>
<path class="st0" d="M19.83,0.35h47.68C77.74,0.35,86,8.63,86,18.83v47.68C86,76.74,77.72,85,67.52,85H19.83
	C9.61,85,1.35,76.72,1.35,66.52V18.83C1.35,8.61,9.61,0.35,19.83,0.35z"/>
<path class="st1" d="M54.02,45.44l1.21-7.66h-7.42V32.8c0-2.1,1.04-4.15,4.35-4.15h3.42v-6.53c-1.99-0.31-4-0.49-6.03-0.51
	c-6.11,0-10.11,3.67-10.11,10.33v5.85h-6.78v7.66h6.78v18.54h8.36V45.44H54.02z"/>
<linearGradient id="SVGID_1_" gradientUnits="userSpaceOnUse" x1="59.2452" y1="517.8277" x2="-25.4122" y2="433.1707" gradientTransform="matrix(1 0 0 1 24.9449 -435.6378)">
	<stop  offset="0" style="stop-color:#FBE18A"/>
	<stop  offset="0.21" style="stop-color:#FCBB45"/>
	<stop  offset="0.38" style="stop-color:#F75274"/>
	<stop  offset="0.52" style="stop-color:#D53692"/>
	<stop  offset="0.74" style="stop-color:#8F39CE"/>
	<stop  offset="1" style="stop-color:#5B4FE9"/>
</linearGradient>
<path class="st2" d="M18.83-1.65h47.68C76.74-1.65,85,6.63,85,16.83v47.68C85,74.74,76.72,83,66.52,83H18.83
	C8.61,83,0.35,74.72,0.35,64.52V16.83C0.35,6.61,8.63-1.65,18.83-1.65z"/>
<path class="st1" d="M35.64,40.78c0-3.89,3.16-7.06,7.06-7.06s7.06,3.16,7.06,7.06s-3.16,7.06-7.06,7.06S35.64,44.68,35.64,40.78z
	 M31.81,40.78c0,6.02,4.86,10.88,10.88,10.88c6,0,10.88-4.86,10.88-10.88c0-6.02-4.86-10.88-10.88-10.88
	C36.68,29.91,31.81,34.77,31.81,40.78z M51.45,29.47c0,0.51,0.15,0.99,0.42,1.41c0.27,0.42,0.68,0.75,1.13,0.93
	c0.46,0.2,0.97,0.24,1.46,0.15c0.49-0.09,0.95-0.35,1.3-0.69c0.35-0.35,0.6-0.8,0.69-1.3c0.09-0.49,0.05-1.01-0.15-1.46
	s-0.51-0.86-0.93-1.13c-0.42-0.27-0.91-0.42-1.41-0.42l0,0c-0.68,0-1.32,0.27-1.79,0.75C51.73,28.15,51.45,28.79,51.45,29.47z
	 M34.14,58.03c-2.07-0.09-3.18-0.44-3.93-0.73c-0.99-0.38-1.7-0.84-2.43-1.59c-0.75-0.75-1.21-1.44-1.59-2.43
	c-0.29-0.75-0.64-1.86-0.73-3.93c-0.11-2.23-0.13-2.91-0.13-8.56c0-5.65,0.02-6.33,0.13-8.56c0.09-2.07,0.44-3.18,0.73-3.93
	c0.38-0.99,0.84-1.7,1.59-2.43c0.75-0.75,1.44-1.21,2.43-1.59c0.75-0.29,1.86-0.64,3.93-0.73c2.23-0.11,2.91-0.13,8.56-0.13
	c5.65,0,6.33,0.02,8.56,0.13c2.07,0.09,3.18,0.44,3.93,0.73c0.99,0.38,1.7,0.84,2.43,1.59c0.75,0.75,1.21,1.44,1.59,2.43
	c0.29,0.75,0.64,1.86,0.73,3.93c0.11,2.23,0.13,2.91,0.13,8.56c0,5.65-0.02,6.33-0.13,8.56c-0.09,2.07-0.44,3.18-0.73,3.93
	c-0.38,0.99-0.84,1.7-1.59,2.43c-0.75,0.73-1.44,1.21-2.43,1.59c-0.75,0.29-1.86,0.64-3.93,0.73c-2.23,0.11-2.91,0.13-8.56,0.13
	C37.04,58.15,36.37,58.12,34.14,58.03z M33.95,19.72c-2.25,0.11-3.8,0.46-5.14,0.99c-1.39,0.55-2.58,1.26-3.75,2.45
	c-1.17,1.19-1.9,2.36-2.45,3.75c-0.53,1.35-0.88,2.89-0.99,5.14c-0.11,2.27-0.13,2.98-0.13,8.74s0.02,6.47,0.13,8.74
	c0.11,2.25,0.46,3.8,0.99,5.14c0.55,1.39,1.26,2.58,2.45,3.75c1.17,1.17,2.36,1.9,3.75,2.45c1.35,0.53,2.89,0.88,5.14,0.99
	c2.27,0.11,2.98,0.13,8.74,0.13s6.47-0.02,8.74-0.13c2.25-0.11,3.78-0.46,5.14-0.99c1.39-0.55,2.58-1.26,3.75-2.45
	c1.17-1.17,1.9-2.36,2.45-3.75c0.53-1.35,0.88-2.89,0.99-5.14c0.11-2.27,0.13-2.98,0.13-8.74s-0.02-6.47-0.13-8.74
	c-0.11-2.25-0.46-3.8-0.99-5.14c-0.55-1.39-1.26-2.58-2.45-3.75c-1.17-1.17-2.36-1.9-3.75-2.45c-1.35-0.53-2.89-0.88-5.14-0.99
	c-2.27-0.11-2.98-0.13-8.74-0.13C36.93,19.59,36.22,19.61,33.95,19.72z"/>
<path class="st3" d="M18.84,0.35h47.68C76.74,0.35,85,8.63,85,18.83v47.68C85,76.73,76.72,85,66.52,85H18.84
	C8.62,85,0.36,76.71,0.36,66.51V18.83C0.34,8.61,8.62,0.35,18.84,0.35z"/>
<path class="st1" d="M63.68,29.27c-1.39,0.6-2.87,1.02-4.37,1.24c0.69-0.13,1.74-1.39,2.16-1.9c0.62-0.77,1.1-1.66,1.41-2.61
	c0-0.07,0.07-0.16,0-0.22c-0.04-0.02-0.07-0.04-0.11-0.04s-0.07,0.02-0.11,0.04c-1.63,0.88-3.38,1.55-5.17,2.01
	c-0.05,0.02-0.13,0.02-0.2,0c-0.05-0.02-0.13-0.05-0.16-0.09c-0.15-0.16-0.29-0.33-0.46-0.48c-0.73-0.66-1.57-1.21-2.47-1.59
	c-1.22-0.49-2.54-0.71-3.86-0.64c-1.28,0.07-2.52,0.42-3.66,1.01c-1.12,0.62-2.1,1.44-2.89,2.45c-0.82,1.04-1.43,2.23-1.76,3.53
	c-0.27,1.22-0.29,2.49-0.09,3.73c0,0.22,0,0.24-0.18,0.22c-7.17-1.06-13.05-3.6-17.84-9.07c-0.22-0.24-0.33-0.24-0.49,0
	c-2.08,3.18-1.08,8.21,1.54,10.69c0.35,0.33,0.71,0.66,1.1,0.95c-1.21-0.09-2.36-0.4-3.44-0.95c-0.2-0.13-0.31-0.05-0.33,0.18
	c-0.04,0.33-0.04,0.68,0,1.01c0.2,1.61,0.84,3.13,1.83,4.41c0.99,1.28,2.3,2.27,3.8,2.89c0.37,0.16,0.75,0.27,1.13,0.35
	c-1.12,0.22-2.25,0.26-3.36,0.11c-0.24-0.05-0.33,0.07-0.24,0.31c1.48,4.02,4.68,5.25,7.04,5.94c0.33,0.05,0.64,0.05,1.01,0.13
	c0,0,0,0-0.05,0.05c-0.69,1.26-3.49,2.12-4.79,2.56c-2.34,0.84-4.84,1.17-7.33,0.95c-0.38-0.05-0.48-0.05-0.59,0
	c-0.09,0.05,0,0.16,0.11,0.26c0.49,0.33,1.01,0.62,1.54,0.91c1.55,0.84,3.2,1.52,4.9,2.01c8.83,2.43,18.76,0.64,25.38-5.94
	c5.21-5.17,7.04-12.3,7.04-19.45c0-0.27,0.33-0.44,0.53-0.57c1.32-1.02,2.49-2.25,3.46-3.6c0.16-0.2,0.26-0.46,0.24-0.73
	C63.87,29.16,63.87,29.18,63.68,29.27z"/>
<path class="st4" d="M18.83,0.35h47.68C76.74,0.35,85,8.63,85,18.83v47.68C85,76.74,76.72,85,66.52,85H18.83
	C8.61,85,0.35,76.72,0.35,66.52V18.83C0.35,8.61,8.61,0.35,18.83,0.35z"/>
<path class="st1" d="M21.5,62.27l3.03-11.3c-2.45-4.41-3.22-9.53-2.19-14.46c1.04-4.92,3.82-9.31,7.83-12.36
	c4.02-3.05,9-4.53,14.02-4.22c5.03,0.33,9.78,2.45,13.36,5.98s5.78,8.25,6.16,13.26s-1.04,10-4.04,14.06
	c-3,4.04-7.35,6.87-12.27,7.97s-10.07,0.38-14.52-1.99L21.5,62.27z M33.46,55l0.71,0.42c3.22,1.9,6.97,2.69,10.68,2.23
	s7.17-2.12,9.84-4.74c2.67-2.61,4.39-6.03,4.9-9.73c0.51-3.69-0.22-7.46-2.07-10.7c-1.85-3.24-4.72-5.78-8.17-7.22
	c-3.46-1.44-7.28-1.7-10.88-0.73c-3.62,0.95-6.8,3.09-9.09,6.05c-2.27,2.96-3.51,6.58-3.49,10.31c0,3.09,0.86,6.12,2.47,8.76
	l0.44,0.73l-1.7,6.31L33.46,55z"/>
<path class="st5" d="M50.59,43.81c-0.42-0.33-0.9-0.57-1.41-0.68c-0.51-0.11-1.06-0.11-1.57,0c-0.77,0.33-1.28,1.54-1.77,2.16
	c-0.11,0.15-0.26,0.26-0.44,0.29c-0.18,0.04-0.37,0.02-0.51-0.07c-2.85-1.12-5.23-3.14-6.76-5.8c-0.13-0.16-0.2-0.37-0.18-0.59
	c0.02-0.2,0.13-0.4,0.27-0.55c0.57-0.55,0.97-1.24,1.19-1.99c0.05-0.84-0.15-1.66-0.55-2.4c-0.31-1.02-0.91-1.92-1.74-2.61
	c-0.42-0.18-0.9-0.26-1.33-0.18c-0.46,0.07-0.88,0.27-1.22,0.59c-0.6,0.51-1.08,1.15-1.39,1.88c-0.31,0.73-0.46,1.5-0.44,2.3
	c0,0.44,0.05,0.88,0.16,1.32c0.27,1.02,0.71,2.01,1.26,2.93c0.4,0.69,0.84,1.37,1.33,2.01c1.55,2.12,3.51,3.93,5.76,5.32
	c1.13,0.71,2.32,1.28,3.58,1.7c1.3,0.59,2.74,0.82,4.17,0.66c0.8-0.13,1.57-0.44,2.23-0.93c0.66-0.49,1.19-1.13,1.54-1.86
	c0.2-0.44,0.27-0.95,0.18-1.43C52.73,44.87,51.4,44.28,50.59,43.81z"/>
<path class="st6" d="M18.83,0.35h47.68C76.74,0.35,85,8.63,85,18.83v47.68C85,76.74,76.72,85,66.52,85H18.83
	C8.61,85,0.35,76.72,0.35,66.52V18.83C0.35,8.63,8.63,0.35,18.83,0.35z"/>
<path class="st7" d="M32.95,59.84V36.97h-7.59v22.87H32.95L32.95,59.84z M29.15,33.84c2.65,0,4.3-1.76,4.3-3.95
	c-0.05-2.25-1.65-3.95-4.24-3.95c-2.6,0-4.3,1.7-4.3,3.95c0,2.19,1.65,3.95,4.21,3.95H29.15L29.15,33.84z M37.14,59.84h7.59V47.08
	c0-0.68,0.05-1.37,0.26-1.85c0.55-1.37,1.79-2.78,3.89-2.78c2.74,0,3.84,2.1,3.84,5.17v12.23h7.59V46.75
	c0-7.02-3.75-10.29-8.74-10.29c-4.1,0-5.89,2.29-6.89,3.86h0.05v-3.31h-7.59C37.24,39.11,37.14,59.84,37.14,59.84L37.14,59.84z"/>
</svg>
