<?xml version="1.0" encoding="utf-8"?>
<!-- Generator: Adobe Illustrator 26.5.0, SVG Export Plug-In . SVG Version: 6.00 Build 0)  -->
<svg version="1.1" id="Calque_1" xmlns="http://www.w3.org/2000/svg" xmlns:xlink="http://www.w3.org/1999/xlink" x="0px" y="0px"
	 viewBox="0 0 85 85" style="enable-background:new 0 0 85 85;" xml:space="preserve">
<style type="text/css">
	.st0{display:none;fill:#337FFF;}
	.st1{display:none;fill:#FFFFFF;}
	.st2{display:none;fill:url(#SVGID_1_);}
	.st3{display:none;fill:#33CCFF;}
	.st4{display:none;fill:#00D95F;}
	.st5{display:none;fill-rule:evenodd;clip-rule:evenodd;fill:#FFFFFF;}
	.st6{display:none;fill:#006699;}
	.st7{fill:#00B7F0;}
	.st8{fill:#FFFFFF;}
	.st9{opacity:0.05;fill-rule:evenodd;clip-rule:evenodd;fill:#FFFFFF;enable-background:new    ;}
	.st10{opacity:0.1;fill-rule:evenodd;clip-rule:evenodd;fill:#FFFFFF;enable-background:new    ;}
	.st11{fill-rule:evenodd;clip-rule:evenodd;fill:#00B7F0;}
</style>
<path class="st0" d="M19.83,0.35h47.68C77.74,0.35,86,8.63,86,18.83v47.68C86,76.74,77.72,85,67.52,85H19.83
	C9.61,85,1.35,76.72,1.35,66.52V18.83C1.35,8.61,9.61,0.35,19.83,0.35z"/>
<path class="st1" d="M54.02,45.44l1.21-7.66h-7.42V32.8c0-2.1,1.04-4.15,4.35-4.15h3.42v-6.53c-1.99-0.31-4-0.49-6.03-0.51
	c-6.11,0-10.11,3.67-10.11,10.33v5.85h-6.78v7.66h6.78v18.54h8.36V45.44H54.02z"/>
<linearGradient id="SVGID_1_" gradientUnits="userSpaceOnUse" x1="59.2452" y1="517.8277" x2="-25.4122" y2="433.1707" gradientTransform="matrix(1 0 0 1 24.9449 -435.6378)">
	<stop  offset="0" style="stop-color:#FBE18A"/>
	<stop  offset="0.21" style="stop-color:#FCBB45"/>
	<stop  offset="0.38" style="stop-color:#F75274"/>
	<stop  offset="0.52" style="stop-color:#D53692"/>
	<stop  offset="0.74" style="stop-color:#8F39CE"/>
	<stop  offset="1" style="stop-color:#5B4FE9"/>
</linearGradient>
<path class="st2" d="M18.83-1.65h47.68C76.74-1.65,85,6.63,85,16.83v47.68C85,74.74,76.72,83,66.52,83H18.83
	C8.61,83,0.35,74.72,0.35,64.52V16.83C0.35,6.61,8.63-1.65,18.83-1.65z"/>
<path class="st1" d="M35.64,40.78c0-3.89,3.16-7.06,7.06-7.06s7.06,3.16,7.06,7.06s-3.16,7.06-7.06,7.06S35.64,44.68,35.64,40.78z
	 M31.81,40.78c0,6.02,4.86,10.88,10.88,10.88c6,0,10.88-4.86,10.88-10.88c0-6.02-4.86-10.88-10.88-10.88
	C36.68,29.91,31.81,34.77,31.81,40.78z M51.45,29.47c0,0.51,0.15,0.99,0.42,1.41c0.27,0.42,0.68,0.75,1.13,0.93
	c0.46,0.2,0.97,0.24,1.46,0.15c0.49-0.09,0.95-0.35,1.3-0.69c0.35-0.35,0.6-0.8,0.69-1.3c0.09-0.49,0.05-1.01-0.15-1.46
	s-0.51-0.86-0.93-1.13c-0.42-0.27-0.91-0.42-1.41-0.42l0,0c-0.68,0-1.32,0.27-1.79,0.75C51.73,28.15,51.45,28.79,51.45,29.47z
	 M34.14,58.03c-2.07-0.09-3.18-0.44-3.93-0.73c-0.99-0.38-1.7-0.84-2.43-1.59c-0.75-0.75-1.21-1.44-1.59-2.43
	c-0.29-0.75-0.64-1.86-0.73-3.93c-0.11-2.23-0.13-2.91-0.13-8.56c0-5.65,0.02-6.33,0.13-8.56c0.09-2.07,0.44-3.18,0.73-3.93
	c0.38-0.99,0.84-1.7,1.59-2.43c0.75-0.75,1.44-1.21,2.43-1.59c0.75-0.29,1.86-0.64,3.93-0.73c2.23-0.11,2.91-0.13,8.56-0.13
	c5.65,0,6.33,0.02,8.56,0.13c2.07,0.09,3.18,0.44,3.93,0.73c0.99,0.38,1.7,0.84,2.43,1.59c0.75,0.75,1.21,1.44,1.59,2.43
	c0.29,0.75,0.64,1.86,0.73,3.93c0.11,2.23,0.13,2.91,0.13,8.56c0,5.65-0.02,6.33-0.13,8.56c-0.09,2.07-0.44,3.18-0.73,3.93
	c-0.38,0.99-0.84,1.7-1.59,2.43c-0.75,0.73-1.44,1.21-2.43,1.59c-0.75,0.29-1.86,0.64-3.93,0.73c-2.23,0.11-2.91,0.13-8.56,0.13
	C37.04,58.15,36.37,58.12,34.14,58.03z M33.95,19.72c-2.25,0.11-3.8,0.46-5.14,0.99c-1.39,0.55-2.58,1.26-3.75,2.45
	c-1.17,1.19-1.9,2.36-2.45,3.75c-0.53,1.35-0.88,2.89-0.99,5.14c-0.11,2.27-0.13,2.98-0.13,8.74s0.02,6.47,0.13,8.74
	c0.11,2.25,0.46,3.8,0.99,5.14c0.55,1.39,1.26,2.58,2.45,3.75c1.17,1.17,2.36,1.9,3.75,2.45c1.35,0.53,2.89,0.88,5.14,0.99
	c2.27,0.11,2.98,0.13,8.74,0.13s6.47-0.02,8.74-0.13c2.25-0.11,3.78-0.46,5.14-0.99c1.39-0.55,2.58-1.26,3.75-2.45
	c1.17-1.17,1.9-2.36,2.45-3.75c0.53-1.35,0.88-2.89,0.99-5.14c0.11-2.27,0.13-2.98,0.13-8.74s-0.02-6.47-0.13-8.74
	c-0.11-2.25-0.46-3.8-0.99-5.14c-0.55-1.39-1.26-2.58-2.45-3.75c-1.17-1.17-2.36-1.9-3.75-2.45c-1.35-0.53-2.89-0.88-5.14-0.99
	c-2.27-0.11-2.98-0.13-8.74-0.13C36.93,19.59,36.22,19.61,33.95,19.72z"/>
<path class="st3" d="M18.84,0.35h47.68C76.74,0.35,85,8.63,85,18.83v47.68C85,76.73,76.72,85,66.52,85H18.84
	C8.62,85,0.36,76.71,0.36,66.51V18.83C0.34,8.61,8.62,0.35,18.84,0.35z"/>
<path class="st1" d="M63.68,29.27c-1.39,0.6-2.87,1.02-4.37,1.24c0.69-0.13,1.74-1.39,2.16-1.9c0.62-0.77,1.1-1.66,1.41-2.61
	c0-0.07,0.07-0.16,0-0.22c-0.04-0.02-0.07-0.04-0.11-0.04s-0.07,0.02-0.11,0.04c-1.63,0.88-3.38,1.55-5.17,2.01
	c-0.05,0.02-0.13,0.02-0.2,0c-0.05-0.02-0.13-0.05-0.16-0.09c-0.15-0.16-0.29-0.33-0.46-0.48c-0.73-0.66-1.57-1.21-2.47-1.59
	c-1.22-0.49-2.54-0.71-3.86-0.64c-1.28,0.07-2.52,0.42-3.66,1.01c-1.12,0.62-2.1,1.44-2.89,2.45c-0.82,1.04-1.43,2.23-1.76,3.53
	c-0.27,1.22-0.29,2.49-0.09,3.73c0,0.22,0,0.24-0.18,0.22c-7.17-1.06-13.05-3.6-17.84-9.07c-0.22-0.24-0.33-0.24-0.49,0
	c-2.08,3.18-1.08,8.21,1.54,10.69c0.35,0.33,0.71,0.66,1.1,0.95c-1.21-0.09-2.36-0.4-3.44-0.95c-0.2-0.13-0.31-0.05-0.33,0.18
	c-0.04,0.33-0.04,0.68,0,1.01c0.2,1.61,0.84,3.13,1.83,4.41c0.99,1.28,2.3,2.27,3.8,2.89c0.37,0.16,0.75,0.27,1.13,0.35
	c-1.12,0.22-2.25,0.26-3.36,0.11c-0.24-0.05-0.33,0.07-0.24,0.31c1.48,4.02,4.68,5.25,7.04,5.94c0.33,0.05,0.64,0.05,1.01,0.13
	c0,0,0,0-0.05,0.05c-0.69,1.26-3.49,2.12-4.79,2.56c-2.34,0.84-4.84,1.17-7.33,0.95c-0.38-0.05-0.48-0.05-0.59,0
	c-0.09,0.05,0,0.16,0.11,0.26c0.49,0.33,1.01,0.62,1.54,0.91c1.55,0.84,3.2,1.52,4.9,2.01c8.83,2.43,18.76,0.64,25.38-5.94
	c5.21-5.17,7.04-12.3,7.04-19.45c0-0.27,0.33-0.44,0.53-0.57c1.32-1.02,2.49-2.25,3.46-3.6c0.16-0.2,0.26-0.46,0.24-0.73
	C63.87,29.16,63.87,29.18,63.68,29.27z"/>
<path class="st4" d="M18.83,0.35h47.68C76.74,0.35,85,8.63,85,18.83v47.68C85,76.74,76.72,85,66.52,85H18.83
	C8.61,85,0.35,76.72,0.35,66.52V18.83C0.35,8.61,8.61,0.35,18.83,0.35z"/>
<path class="st1" d="M21.5,62.27l3.03-11.3c-2.45-4.41-3.22-9.53-2.19-14.46c1.04-4.92,3.82-9.31,7.83-12.36
	c4.02-3.05,9-4.53,14.02-4.22c5.03,0.33,9.78,2.45,13.36,5.98s5.78,8.25,6.16,13.26s-1.04,10-4.04,14.06
	c-3,4.04-7.35,6.87-12.27,7.97s-10.07,0.38-14.52-1.99L21.5,62.27z M33.46,55l0.71,0.42c3.22,1.9,6.97,2.69,10.68,2.23
	s7.17-2.12,9.84-4.74c2.67-2.61,4.39-6.03,4.9-9.73c0.51-3.69-0.22-7.46-2.07-10.7c-1.85-3.24-4.72-5.78-8.17-7.22
	c-3.46-1.44-7.28-1.7-10.88-0.73c-3.62,0.95-6.8,3.09-9.09,6.05c-2.27,2.96-3.51,6.58-3.49,10.31c0,3.09,0.86,6.12,2.47,8.76
	l0.44,0.73l-1.7,6.31L33.46,55z"/>
<path class="st5" d="M50.59,43.81c-0.42-0.33-0.9-0.57-1.41-0.68c-0.51-0.11-1.06-0.11-1.57,0c-0.77,0.33-1.28,1.54-1.77,2.16
	c-0.11,0.15-0.26,0.26-0.44,0.29c-0.18,0.04-0.37,0.02-0.51-0.07c-2.85-1.12-5.23-3.14-6.76-5.8c-0.13-0.16-0.2-0.37-0.18-0.59
	c0.02-0.2,0.13-0.4,0.27-0.55c0.57-0.55,0.97-1.24,1.19-1.99c0.05-0.84-0.15-1.66-0.55-2.4c-0.31-1.02-0.91-1.92-1.74-2.61
	c-0.42-0.18-0.9-0.26-1.33-0.18c-0.46,0.07-0.88,0.27-1.22,0.59c-0.6,0.51-1.08,1.15-1.39,1.88c-0.31,0.73-0.46,1.5-0.44,2.3
	c0,0.44,0.05,0.88,0.16,1.32c0.27,1.02,0.71,2.01,1.26,2.93c0.4,0.69,0.84,1.37,1.33,2.01c1.55,2.12,3.51,3.93,5.76,5.32
	c1.13,0.71,2.32,1.28,3.58,1.7c1.3,0.59,2.74,0.82,4.17,0.66c0.8-0.13,1.57-0.44,2.23-0.93c0.66-0.49,1.19-1.13,1.54-1.86
	c0.2-0.44,0.27-0.95,0.18-1.43C52.73,44.87,51.4,44.28,50.59,43.81z"/>
<path class="st6" d="M18.83,0.35h47.68C76.74,0.35,85,8.63,85,18.83v47.68C85,76.74,76.72,85,66.52,85H18.83
	C8.61,85,0.35,76.72,0.35,66.52V18.83C0.35,8.63,8.63,0.35,18.83,0.35z"/>
<path class="st1" d="M32.95,59.84V36.97h-7.59v22.87H32.95L32.95,59.84z M29.15,33.84c2.65,0,4.3-1.76,4.3-3.95
	c-0.05-2.25-1.65-3.95-4.24-3.95c-2.6,0-4.3,1.7-4.3,3.95c0,2.19,1.65,3.95,4.21,3.95H29.15L29.15,33.84z M37.14,59.84h7.59V47.08
	c0-0.68,0.05-1.37,0.26-1.85c0.55-1.37,1.79-2.78,3.89-2.78c2.74,0,3.84,2.1,3.84,5.17v12.23h7.59V46.75
	c0-7.02-3.75-10.29-8.74-10.29c-4.1,0-5.89,2.29-6.89,3.86h0.05v-3.31h-7.59C37.24,39.11,37.14,59.84,37.14,59.84L37.14,59.84z"/>
<path class="st7" d="M18.85,0.36h47.67C76.74,0.36,85,8.64,85,18.84v47.67C85,76.73,76.72,85,66.52,85H18.85
	C8.63,85,0.36,76.72,0.36,66.51V18.84C0.34,8.62,8.63,0.36,18.85,0.36z"/>
<path class="st8" d="M46.79,33.21c0,3.57-1.43,6.99-3.95,9.51c-2.54,2.52-5.98,3.95-9.56,3.95s-7.02-1.43-9.56-3.95
	c-2.54-2.52-3.95-5.94-3.95-9.51s1.43-6.99,3.95-9.51c2.54-2.52,5.98-3.95,9.56-3.95s7.02,1.43,9.56,3.95
	C45.36,26.23,46.79,29.65,46.79,33.21z"/>
<path class="st8" d="M65.62,52.54c0,1.77-0.35,3.51-1.02,5.16c-0.68,1.63-1.68,3.11-2.93,4.37c-1.26,1.24-2.74,2.25-4.39,2.93
	c-1.65,0.68-3.4,1.02-5.17,1.02c-3.58,0-7.02-1.43-9.56-3.95c-2.54-2.52-3.97-5.94-3.97-9.51s1.43-6.99,3.97-9.51
	c2.54-2.52,5.98-3.95,9.56-3.95c1.77,0,3.53,0.35,5.17,1.02c1.65,0.68,3.13,1.66,4.39,2.93c1.26,1.24,2.25,2.72,2.93,4.37
	C65.27,49.03,65.62,50.77,65.62,52.54z"/>
<path class="st9" d="M19.82,34.37c0.2,2.54,1.13,4.97,2.67,7c1.54,2.03,3.62,3.6,6.02,4.5s4.99,1.12,7.48,0.6
	c2.51-0.51,4.81-1.72,6.66-3.47c1.85-1.76,3.15-4.02,3.77-6.49c0.62-2.47,0.51-5.07-0.29-7.5c-0.8-2.41-2.27-4.57-4.24-6.18
	c-1.97-1.63-4.37-2.65-6.89-2.96c-3.44,1.15-6.58,3.05-9.2,5.56C23.14,27.93,21.11,30.98,19.82,34.37z"/>
<path class="st9" d="M65.59,51.57c-0.18-2.58-1.08-5.05-2.63-7.11c-1.54-2.07-3.64-3.66-6.05-4.57c-2.41-0.91-5.05-1.13-7.57-0.6
	c-2.52,0.53-4.85,1.76-6.69,3.57c-1.85,1.81-3.13,4.1-3.71,6.6s-0.44,5.14,0.44,7.57c0.86,2.43,2.41,4.55,4.44,6.14
	c2.05,1.57,4.5,2.54,7.06,2.78c3.35-1.19,6.4-3.09,8.94-5.58C62.35,57.9,64.32,54.9,65.59,51.57L65.59,51.57z"/>
<path class="st10" d="M20.46,37.46c0.71,2.18,1.96,4.11,3.64,5.69c1.66,1.55,3.71,2.67,5.92,3.22c2.21,0.55,4.53,0.53,6.75-0.05
	c2.21-0.59,4.22-1.72,5.89-3.29c1.65-1.57,2.87-3.55,3.55-5.72c0.68-2.18,0.79-4.5,0.33-6.73c-0.46-2.23-1.48-4.32-2.96-6.05
	c-1.48-1.74-3.38-3.07-5.52-3.86c-4.22,0.88-8.1,2.93-11.21,5.89C23.71,29.5,21.5,33.29,20.46,37.46z"/>
<path class="st10" d="M64.98,48.41c-0.69-2.19-1.96-4.17-3.64-5.74c-1.68-1.57-3.73-2.69-5.98-3.25c-2.23-0.55-4.57-0.53-6.8,0.07
	c-2.23,0.6-4.26,1.77-5.91,3.38c-1.65,1.61-2.85,3.62-3.51,5.81c-0.66,2.21-0.73,4.55-0.22,6.8c0.51,2.25,1.57,4.33,3.13,6.03
	c1.54,1.72,3.49,3.02,5.67,3.75c4.17-0.93,7.97-3,11.03-5.98C61.78,56.31,63.96,52.54,64.98,48.41z"/>
<path class="st10" d="M20.95,38.72c0.88,1.97,2.23,3.71,3.91,5.07c1.7,1.35,3.69,2.27,5.81,2.69s4.32,0.31,6.4-0.29
	c2.08-0.6,3.99-1.7,5.54-3.2c1.57-1.5,2.74-3.35,3.44-5.39c0.69-2.05,0.9-4.24,0.57-6.38s-1.17-4.17-2.45-5.92
	c-1.28-1.76-2.96-3.16-4.9-4.13c-4.5,0.69-8.65,2.76-11.94,5.89C24.08,30.2,21.85,34.28,20.95,38.72z"/>
<path class="st10" d="M64.49,47.11c-0.88-1.99-2.23-3.77-3.93-5.12c-1.7-1.37-3.71-2.3-5.87-2.72c-2.14-0.42-4.37-0.31-6.45,0.31
	c-2.1,0.62-4,1.76-5.58,3.27c-1.57,1.52-2.72,3.4-3.4,5.49c-0.68,2.08-0.84,4.28-0.46,6.44c0.37,2.16,1.26,4.19,2.58,5.92
	c1.33,1.74,3.05,3.13,5.05,4.04c4.44-0.75,8.56-2.85,11.79-6C61.43,55.6,63.63,51.54,64.49,47.11z"/>
<path class="st8" d="M64.1,42.98c0,2.8-0.55,5.58-1.63,8.16c-1.08,2.58-2.65,4.94-4.64,6.91c-1.99,1.97-4.35,3.55-6.95,4.63
	c-2.6,1.08-5.38,1.63-8.19,1.63c-2.82,0-5.6-0.55-8.19-1.63c-2.6-1.08-4.96-2.63-6.95-4.63c-1.99-1.97-3.57-4.33-4.64-6.91
	c-1.08-2.58-1.63-5.36-1.63-8.16c0-2.8,0.55-5.58,1.63-8.16c1.08-2.58,2.65-4.94,4.64-6.91s4.35-3.55,6.95-4.63
	c2.6-1.08,5.38-1.63,8.19-1.63c2.82,0,5.6,0.55,8.19,1.63c2.6,1.08,4.96,2.63,6.95,4.63c1.99,1.97,3.57,4.33,4.64,6.91
	C63.56,37.42,64.1,40.18,64.1,42.98z"/>
<path class="st11" d="M36.68,42.25c-0.86-0.57-1.59-1.33-2.1-2.23c-0.51-0.95-0.75-2.01-0.71-3.07c-0.04-1.35,0.42-2.69,1.3-3.71
	c0.91-1.04,2.08-1.83,3.4-2.27c1.43-0.51,2.93-0.75,4.44-0.75c0.99-0.02,1.97,0.07,2.96,0.22c0.69,0.11,1.39,0.29,2.05,0.53
	c0.6,0.2,1.15,0.55,1.61,1.02c0.33,0.38,0.51,0.88,0.49,1.37c0.02,0.26-0.04,0.53-0.11,0.77c-0.09,0.24-0.22,0.48-0.4,0.66
	c-0.16,0.18-0.37,0.31-0.6,0.42c-0.22,0.09-0.48,0.15-0.71,0.13c-0.33,0-0.68-0.07-0.97-0.22c-0.75-0.33-1.54-0.62-2.32-0.84
	c-0.73-0.2-1.48-0.29-2.23-0.27c-0.99-0.04-1.96,0.22-2.8,0.71c-0.35,0.22-0.64,0.53-0.84,0.9c-0.2,0.37-0.29,0.79-0.27,1.19
	c0,0.55,0.2,1.08,0.59,1.46c0.46,0.46,0.99,0.84,1.57,1.12c0.66,0.33,1.63,0.75,2.93,1.3c0.15,0.04,0.29,0.11,0.42,0.16
	c1.26,0.49,2.49,1.13,3.62,1.87c0.9,0.59,1.66,1.37,2.23,2.29c0.55,0.97,0.84,2.07,0.8,3.18c0.05,1.37-0.35,2.71-1.12,3.84
	c-0.79,1.06-1.88,1.87-3.13,2.32c-1.5,0.53-3.09,0.8-4.7,0.77c-2.19,0.07-4.39-0.33-6.4-1.21c-0.51-0.24-0.97-0.59-1.32-1.02
	c-0.29-0.4-0.44-0.9-0.42-1.39c-0.02-0.26,0.04-0.53,0.13-0.77c0.09-0.24,0.26-0.46,0.44-0.64c0.4-0.35,0.91-0.53,1.44-0.51
	c0.59,0,1.17,0.16,1.7,0.44c0.66,0.33,1.17,0.57,1.54,0.73c0.42,0.18,0.88,0.31,1.33,0.42c0.57,0.13,1.13,0.18,1.7,0.18
	c1.01,0.07,2.03-0.2,2.87-0.77c0.31-0.26,0.57-0.57,0.73-0.93s0.26-0.77,0.24-1.17c0-0.57-0.22-1.12-0.6-1.52
	c-0.51-0.53-1.12-0.97-1.77-1.3c-0.79-0.42-1.88-0.91-3.31-1.52C39.03,43.62,37.83,43,36.68,42.25z"/>
</svg>
